<?xml version="1.0" encoding="UTF-8"?>
<svg width="32px" height="32px" viewBox="0 0 32 32" version="1.1" xmlns="http://www.w3.org/2000/svg">
    <title>QR Hunt Favicon</title>
    <defs>
        <linearGradient x1="0%" y1="0%" x2="100%" y2="100%" id="qrGradient">
            <stop stop-color="#667eea" offset="0%"></stop>
            <stop stop-color="#764ba2" offset="100%"></stop>
        </linearGradient>
    </defs>
    <g stroke="none" stroke-width="1" fill="none" fill-rule="evenodd">
        <rect fill="url(#qrGradient)" x="0" y="0" width="32" height="32" rx="6"></rect>
        
        <!-- QR Code Pattern (simplified) -->
        <rect fill="white" x="6" y="6" width="4" height="4"></rect>
        <rect fill="white" x="14" y="6" width="4" height="4"></rect>
        <rect fill="white" x="22" y="6" width="4" height="4"></rect>
        
        <rect fill="white" x="6" y="14" width="4" height="4"></rect>
        <rect fill="white" x="14" y="14" width="4" height="4"></rect>
        <rect fill="white" x="18" y="14" width="4" height="4"></rect>
        
        <rect fill="white" x="6" y="22" width="4" height="4"></rect>
        <rect fill="white" x="14" y="22" width="4" height="4"></rect>
        <rect fill="white" x="22" y="18" width="4" height="4"></rect>
        <rect fill="white" x="22" y="22" width="4" height="4"></rect>
        
        <!-- Sparkle -->
        <path d="M24,4 L26,4 L26,2 L24,2 L24,4 Z M26,6 L26,4 L28,4 L28,6 L26,6 Z M22,6 L22,4 L24,4 L24,6 L22,6 Z M24,8 L24,6 L26,6 L26,8 L24,8 Z" fill="white" opacity="0.8"></path>
    </g>
</svg>
